<?xml version="1.0" encoding="UTF-8" standalone="no"?>
<svg
   xmlns:dc="http://purl.org/dc/elements/1.1/"
   xmlns:cc="http://creativecommons.org/ns#"
   xmlns:rdf="http://www.w3.org/1999/02/22-rdf-syntax-ns#"
   xmlns:svg="http://www.w3.org/2000/svg"
   xmlns="http://www.w3.org/2000/svg"
   xmlns:sodipodi="http://sodipodi.sourceforge.net/DTD/sodipodi-0.dtd"
   xmlns:inkscape="http://www.inkscape.org/namespaces/inkscape"
   id="Layer_1"
   data-name="Layer 1"
   viewBox="0 0 68.269997 72.110489"
   version="1.1"
   sodipodi:docname="Gear+CloudLogo-Color.svg"
   width="68.269997"
   height="72.110489"
   inkscape:version="0.92.2 (5c3e80d, 2017-08-06)">
  <metadata
     id="metadata4532">
    <rdf:RDF>
      <cc:Work
         rdf:about="">
        <dc:format>image/svg+xml</dc:format>
        <dc:type
           rdf:resource="http://purl.org/dc/dcmitype/StillImage" />
        <dc:title>Gear-Cloud Logo</dc:title>
      </cc:Work>
    </rdf:RDF>
  </metadata>
  <sodipodi:namedview
     pagecolor="#ffffff"
     bordercolor="#666666"
     borderopacity="1"
     objecttolerance="10"
     gridtolerance="10"
     guidetolerance="10"
     inkscape:pageopacity="0"
     inkscape:pageshadow="2"
     inkscape:window-width="1201"
     inkscape:window-height="975"
     id="namedview4530"
     showgrid="false"
     fit-margin-top="0"
     fit-margin-left="0"
     fit-margin-right="0"
     fit-margin-bottom="0"
     inkscape:zoom="1.4880952"
     inkscape:cx="34.14"
     inkscape:cy="36.02"
     inkscape:window-x="-10"
     inkscape:window-y="262"
     inkscape:window-maximized="0"
     inkscape:current-layer="Layer_1" />
  <defs
     id="defs4521">
    <style
       id="style4519">.cls-1{fill:#72c6ef;}.cls-2{fill:#034ea2;}</style>
  </defs>
  <title
     id="title4523">Gear-Cloud Logo</title>
  <path
     class="cls-1"
     d="m 60.14,22.700489 a 0.63,0.63 0 0 1 -0.46,-0.8 13.79,13.79 0 0 0 0.13,-7.45 14,14 0 0 0 -22.15,-7.5599997 0.63,0.63 0 0 1 -0.93,-0.17 14,14 0 0 0 -24.9,12.6199997 0.62,0.62 0 0 1 -0.5,0.85 12.92,12.92 0 0 0 -11.26,12.81 11.94,11.94 0 0 0 0.09,1.45 0.62,0.62 0 0 0 0.62,0.54 h 20.54 a 12.84,12.84 0 0 1 25.51,0 h 20.72 a 0.62,0.62 0 0 0 0.62,-0.53 10.29,10.29 0 0 0 0.1,-1.38 10.7,10.7 0 0 0 -8.13,-10.38 z"
     id="path4525"
     inkscape:connector-curvature="0"
     style="fill:#72c6ef" />
  <path
     class="cls-2"
     d="m 67.54,38.010489 h -20.7 a 12.84,12.84 0 0 1 -25.51,0 H 0.63 a 0.63,0.63 0 0 0 -0.63,0.63 v 3.27 a 0.63,0.63 0 0 0 0.57,0.62 l 6.11,0.58 a 0.62,0.62 0 0 1 0.55,0.5 27.19,27.19 0 0 0 0.8,3 0.62,0.62 0 0 1 -0.23,0.7 l -5,3.55 a 0.63,0.63 0 0 0 -0.18,0.82 l 3.9,6.75 a 0.63,0.63 0 0 0 0.8,0.26 l 5.59,-2.56 a 0.62,0.62 0 0 1 0.72,0.15 27.57,27.57 0 0 0 2.2,2.2 0.62,0.62 0 0 1 0.15,0.72 l -2.56,5.59 a 0.63,0.63 0 0 0 0.26,0.8 l 6.75,3.9 a 0.63,0.63 0 0 0 0.82,-0.18 l 3.55,-5 a 0.62,0.62 0 0 1 0.7,-0.23 27.24,27.24 0 0 0 3,0.8 0.62,0.62 0 0 1 0.5,0.55 l 0.58,6.11 a 0.63,0.63 0 0 0 0.62,0.57 h 7.79 a 0.63,0.63 0 0 0 0.62,-0.57 l 0.58,-6.11 a 0.62,0.62 0 0 1 0.5,-0.55 27.23,27.23 0 0 0 3,-0.8 0.62,0.62 0 0 1 0.7,0.23 l 3.55,5 a 0.63,0.63 0 0 0 0.82,0.18 l 6.75,-3.9 a 0.63,0.63 0 0 0 0.26,-0.8 l -2.56,-5.59 a 0.62,0.62 0 0 1 0.15,-0.72 27.59,27.59 0 0 0 2.2,-2.2 0.62,0.62 0 0 1 0.72,-0.15 l 5.59,2.56 a 0.63,0.63 0 0 0 0.8,-0.26 l 3.9,-6.75 a 0.63,0.63 0 0 0 -0.18,-0.82 l -5,-3.55 a 0.62,0.62 0 0 1 -0.23,-0.7 27.19,27.19 0 0 0 0.8,-3 0.62,0.62 0 0 1 0.55,-0.5 l 6.11,-0.58 a 0.63,0.63 0 0 0 0.57,-0.62 v -3.27 a 0.63,0.63 0 0 0 -0.65,-0.63 z"
     id="path4527"
     inkscape:connector-curvature="0"
     style="fill:#034ea2" />
</svg>
